<svg id="Logo" xmlns="http://www.w3.org/2000/svg" viewBox="0 0 137 28"><style>.st0{enable-background:new}.st1{fill:#fefefe}.st2{fill:#65e496}</style><g class="st0"><path class="st1" d="M47 23V3.1h7c2.4 0 4.2.5 5.5 1.4 1.2.9 1.9 2.3 1.9 4.1 0 1-.3 1.8-.8 2.6-.5.7-1.2 1.3-2.1 1.6 1 .3 1.8.8 2.4 1.5s.9 1.7.9 2.8c0 1.9-.6 3.4-1.8 4.3-1.2 1-3 1.5-5.2 1.5H47zm4.1-11.6h3c2.1 0 3.1-.9 3.1-2.5 0-.9-.3-1.6-.8-1.9-.5-.4-1.4-.6-2.5-.6H51v5zm0 2.9v5.4h3.5c1 0 1.7-.2 2.3-.7.5-.5.8-1.1.8-1.9 0-1.8-.9-2.7-2.8-2.8h-3.8zM79.9 3.1v13.1c0 2.2-.7 3.9-2 5.2-1.4 1.3-3.2 1.9-5.6 1.9-2.3 0-4.2-.6-5.5-1.8s-2.1-2.9-2.1-5.1V3.1h4.1v13.1c0 1.3.3 2.3.9 2.9.6.6 1.5.9 2.6.9 2.3 0 3.5-1.2 3.5-3.6V3.1h4.1zM89.5 15l-2.1 2.3V23h-4.1V3.1h4.1v9l1.8-2.5 5.1-6.5h5l-7.1 8.8L99.5 23h-4.9l-5.1-8z"/></g><g class="st0"><path class="st2" d="M113 14.4h-7.9v5.3h9.2V23H101V3.1h13.3v3.3h-9.2v4.7h7.9v3.3zM128.8 14.4h-7.9v5.3h9.2V23h-13.3V3.1h13.3v3.3h-9.2v4.7h7.9v3.3z"/></g><g id="logo_icon"><path id="Rectangle_10_copy_3" class="st2" d="M28 28L0 0h28v28z"/><path d="M28 0L0 28V0h28z" fill="#80809b"/></g></svg>