<?xml version="1.0" encoding="utf-8"?>
<!-- Generator: Adobe Illustrator 22.1.0, SVG Export Plug-In . SVG Version: 6.00 Build 0)  -->
<svg version="1.1" id="Logo" xmlns="http://www.w3.org/2000/svg" xmlns:xlink="http://www.w3.org/1999/xlink" x="0px" y="0px"
	 viewBox="0 0 137 28" style="enable-background:new 0 0 137 28;" xml:space="preserve">
<style type="text/css">
	.st0{enable-background:new    ;}
	.st1{fill:#FEFEFE;}
	.st2{fill:#65E496;}
	.st3{fill:#44444F;}
</style>
<g class="st0">
	<path class="st1" d="M47,23V3.1h7c2.4,0,4.2,0.5,5.5,1.4c1.2,0.9,1.9,2.3,1.9,4.1c0,1-0.3,1.8-0.8,2.6c-0.5,0.7-1.2,1.3-2.1,1.6
		c1,0.3,1.8,0.8,2.4,1.5s0.9,1.7,0.9,2.8c0,1.9-0.6,3.4-1.8,4.3c-1.2,1-3,1.5-5.2,1.5H47z M51.1,11.4h3c2.1,0,3.1-0.9,3.1-2.5
		c0-0.9-0.3-1.6-0.8-1.9c-0.5-0.4-1.4-0.6-2.5-0.6h-2.9V11.4z M51.1,14.3v5.4h3.5c1,0,1.7-0.2,2.3-0.7c0.5-0.5,0.8-1.1,0.8-1.9
		c0-1.8-0.9-2.7-2.8-2.8H51.1z"/>
	<path class="st1" d="M79.9,3.1v13.1c0,2.2-0.7,3.9-2,5.2c-1.4,1.3-3.2,1.9-5.6,1.9c-2.3,0-4.2-0.6-5.5-1.8s-2.1-2.9-2.1-5.1V3.1
		h4.1v13.1c0,1.3,0.3,2.3,0.9,2.9c0.6,0.6,1.5,0.9,2.6,0.9c2.3,0,3.5-1.2,3.5-3.6V3.1H79.9z"/>
	<path class="st1" d="M89.5,15l-2.1,2.3V23h-4.1V3.1h4.1v9l1.8-2.5l5.1-6.5h5l-7.1,8.8L99.5,23h-4.9L89.5,15z"/>
</g>
<g class="st0">
	<path class="st2" d="M113,14.4h-7.9v5.3h9.2V23h-13.3V3.1h13.3v3.3h-9.2v4.7h7.9V14.4z"/>
	<path class="st2" d="M128.8,14.4h-7.9v5.3h9.2V23h-13.3V3.1h13.3v3.3h-9.2v4.7h7.9V14.4z"/>
</g>
<g id="logo_icon">
	<path id="Rectangle_10_copy_3" class="st2" d="M28,28L0,0h28V28z"/>
	<path class="st3" d="M28,0L0,28V0H28z"/>
</g>
</svg>
